<mxfile host="Electron" modified="2023-07-06T16:23:00.268Z" agent="Mozilla/5.0 (Windows NT 10.0; Win64; x64) AppleWebKit/537.36 (KHTML, like Gecko) draw.io/21.5.1 Chrome/112.0.5615.204 Electron/24.6.0 Safari/537.36" etag="Jj5RvJnN6RNPHxq1C0K-" version="21.5.1" type="device">
  <diagram name="第 1 页" id="YZcYkKBV4jQxwUdL2UfG">
    <mxGraphModel dx="1270" dy="914" grid="1" gridSize="10" guides="1" tooltips="1" connect="1" arrows="1" fold="1" page="1" pageScale="1" pageWidth="827" pageHeight="1169" math="0" shadow="0">
      <root>
        <mxCell id="0" />
        <mxCell id="1" parent="0" />
        <mxCell id="FjPlvFc2R7vJgaK0KZA3-8" style="edgeStyle=orthogonalEdgeStyle;rounded=0;orthogonalLoop=1;jettySize=auto;html=1;exitX=0.25;exitY=0;exitDx=0;exitDy=0;entryX=0.5;entryY=1;entryDx=0;entryDy=0;" parent="1" source="gMzeuS7BrVqeg4yIgOCW-1" target="FjPlvFc2R7vJgaK0KZA3-1" edge="1">
          <mxGeometry relative="1" as="geometry" />
        </mxCell>
        <mxCell id="FjPlvFc2R7vJgaK0KZA3-9" style="edgeStyle=orthogonalEdgeStyle;rounded=0;orthogonalLoop=1;jettySize=auto;html=1;exitX=0.5;exitY=0;exitDx=0;exitDy=0;" parent="1" source="gMzeuS7BrVqeg4yIgOCW-1" target="FjPlvFc2R7vJgaK0KZA3-3" edge="1">
          <mxGeometry relative="1" as="geometry" />
        </mxCell>
        <mxCell id="FjPlvFc2R7vJgaK0KZA3-10" style="edgeStyle=orthogonalEdgeStyle;rounded=0;orthogonalLoop=1;jettySize=auto;html=1;exitX=0.75;exitY=0;exitDx=0;exitDy=0;entryX=0.5;entryY=1;entryDx=0;entryDy=0;" parent="1" source="gMzeuS7BrVqeg4yIgOCW-1" target="FjPlvFc2R7vJgaK0KZA3-6" edge="1">
          <mxGeometry relative="1" as="geometry" />
        </mxCell>
        <mxCell id="gMzeuS7BrVqeg4yIgOCW-1" value="&lt;font face=&quot;Times New Roman&quot; style=&quot;font-size: 20px;&quot;&gt;Variance Model&lt;/font&gt;" style="rounded=1;whiteSpace=wrap;html=1;strokeWidth=1.5;fillColor=#dae8fc;strokeColor=#6c8ebf;" parent="1" vertex="1">
          <mxGeometry x="232.97" y="720" width="300" height="50" as="geometry" />
        </mxCell>
        <mxCell id="gMzeuS7BrVqeg4yIgOCW-3" value="&lt;font face=&quot;Times New Roman&quot; style=&quot;font-size: 16px;&quot;&gt;Phoneme&lt;/font&gt;" style="text;html=1;strokeColor=none;fillColor=none;align=center;verticalAlign=middle;whiteSpace=wrap;rounded=0;" parent="1" vertex="1">
          <mxGeometry x="267.97" y="800" width="80" height="30" as="geometry" />
        </mxCell>
        <mxCell id="gMzeuS7BrVqeg4yIgOCW-4" value="" style="endArrow=classic;html=1;rounded=0;exitX=0.5;exitY=0;exitDx=0;exitDy=0;entryX=0.25;entryY=1;entryDx=0;entryDy=0;strokeWidth=1;" parent="1" source="gMzeuS7BrVqeg4yIgOCW-3" target="gMzeuS7BrVqeg4yIgOCW-1" edge="1">
          <mxGeometry width="50" height="50" relative="1" as="geometry">
            <mxPoint x="562.97" y="620" as="sourcePoint" />
            <mxPoint x="612.97" y="570" as="targetPoint" />
          </mxGeometry>
        </mxCell>
        <mxCell id="gMzeuS7BrVqeg4yIgOCW-6" value="&lt;font face=&quot;Times New Roman&quot; style=&quot;font-size: 16px;&quot;&gt;Word&lt;/font&gt;" style="text;html=1;strokeColor=none;fillColor=none;align=center;verticalAlign=middle;whiteSpace=wrap;rounded=0;" parent="1" vertex="1">
          <mxGeometry x="342.97" y="800" width="80" height="30" as="geometry" />
        </mxCell>
        <mxCell id="gMzeuS7BrVqeg4yIgOCW-7" value="" style="endArrow=classic;html=1;rounded=0;exitX=0.5;exitY=0;exitDx=0;exitDy=0;entryX=0.5;entryY=1;entryDx=0;entryDy=0;strokeWidth=1;" parent="1" source="gMzeuS7BrVqeg4yIgOCW-6" target="gMzeuS7BrVqeg4yIgOCW-1" edge="1">
          <mxGeometry width="50" height="50" relative="1" as="geometry">
            <mxPoint x="657.97" y="635" as="sourcePoint" />
            <mxPoint x="402.97" y="785" as="targetPoint" />
          </mxGeometry>
        </mxCell>
        <mxCell id="gMzeuS7BrVqeg4yIgOCW-8" value="&lt;font face=&quot;Times New Roman&quot; style=&quot;font-size: 16px;&quot;&gt;MIDI&lt;/font&gt;" style="text;html=1;strokeColor=none;fillColor=none;align=center;verticalAlign=middle;whiteSpace=wrap;rounded=0;" parent="1" vertex="1">
          <mxGeometry x="417.97" y="800" width="80" height="30" as="geometry" />
        </mxCell>
        <mxCell id="gMzeuS7BrVqeg4yIgOCW-9" value="" style="endArrow=classic;html=1;rounded=0;exitX=0.5;exitY=0;exitDx=0;exitDy=0;entryX=0.75;entryY=1;entryDx=0;entryDy=0;strokeWidth=1;" parent="1" source="gMzeuS7BrVqeg4yIgOCW-8" target="gMzeuS7BrVqeg4yIgOCW-1" edge="1">
          <mxGeometry width="50" height="50" relative="1" as="geometry">
            <mxPoint x="717.97" y="635" as="sourcePoint" />
            <mxPoint x="462.97" y="785" as="targetPoint" />
          </mxGeometry>
        </mxCell>
        <mxCell id="gMzeuS7BrVqeg4yIgOCW-10" value="&lt;font face=&quot;Times New Roman&quot; style=&quot;font-size: 20px;&quot;&gt;Acoustic Model&lt;/font&gt;" style="rounded=1;whiteSpace=wrap;html=1;strokeWidth=1.5;fillColor=#dae8fc;strokeColor=#6c8ebf;" parent="1" vertex="1">
          <mxGeometry x="232.97" y="580" width="300" height="50" as="geometry" />
        </mxCell>
        <mxCell id="FjPlvFc2R7vJgaK0KZA3-1" value="&lt;font face=&quot;Times New Roman&quot; style=&quot;font-size: 16px;&quot;&gt;Duration&lt;/font&gt;" style="text;html=1;strokeColor=none;fillColor=none;align=center;verticalAlign=middle;whiteSpace=wrap;rounded=0;" parent="1" vertex="1">
          <mxGeometry x="268.97" y="660" width="78" height="30" as="geometry" />
        </mxCell>
        <mxCell id="FjPlvFc2R7vJgaK0KZA3-2" value="" style="endArrow=classic;html=1;rounded=0;exitX=0.5;exitY=0;exitDx=0;exitDy=0;strokeWidth=1;entryX=0.25;entryY=1;entryDx=0;entryDy=0;" parent="1" source="FjPlvFc2R7vJgaK0KZA3-1" target="gMzeuS7BrVqeg4yIgOCW-10" edge="1">
          <mxGeometry width="50" height="50" relative="1" as="geometry">
            <mxPoint x="442.97" y="670" as="sourcePoint" />
            <mxPoint x="312.97" y="630" as="targetPoint" />
          </mxGeometry>
        </mxCell>
        <mxCell id="FjPlvFc2R7vJgaK0KZA3-3" value="&lt;font face=&quot;Times New Roman&quot; style=&quot;font-size: 16px;&quot;&gt;Pitch&lt;/font&gt;" style="text;html=1;strokeColor=none;fillColor=none;align=center;verticalAlign=middle;whiteSpace=wrap;rounded=0;" parent="1" vertex="1">
          <mxGeometry x="343.97" y="660" width="78" height="30" as="geometry" />
        </mxCell>
        <mxCell id="FjPlvFc2R7vJgaK0KZA3-4" value="" style="endArrow=classic;html=1;rounded=0;exitX=0.5;exitY=0;exitDx=0;exitDy=0;strokeWidth=1;entryX=0.5;entryY=1;entryDx=0;entryDy=0;" parent="1" source="FjPlvFc2R7vJgaK0KZA3-3" target="gMzeuS7BrVqeg4yIgOCW-10" edge="1">
          <mxGeometry width="50" height="50" relative="1" as="geometry">
            <mxPoint x="526.97" y="680" as="sourcePoint" />
            <mxPoint x="391.97" y="630" as="targetPoint" />
          </mxGeometry>
        </mxCell>
        <mxCell id="FjPlvFc2R7vJgaK0KZA3-5" value="" style="endArrow=classic;html=1;rounded=0;exitX=0;exitY=0.5;exitDx=0;exitDy=0;entryX=0;entryY=0.75;entryDx=0;entryDy=0;edgeStyle=orthogonalEdgeStyle;" parent="1" source="gMzeuS7BrVqeg4yIgOCW-3" target="gMzeuS7BrVqeg4yIgOCW-10" edge="1">
          <mxGeometry width="50" height="50" relative="1" as="geometry">
            <mxPoint x="432.97" y="710" as="sourcePoint" />
            <mxPoint x="482.97" y="660" as="targetPoint" />
            <Array as="points">
              <mxPoint x="213" y="815" />
              <mxPoint x="213" y="618" />
              <mxPoint x="233" y="618" />
            </Array>
          </mxGeometry>
        </mxCell>
        <mxCell id="FjPlvFc2R7vJgaK0KZA3-6" value="&lt;font face=&quot;Times New Roman&quot; style=&quot;&quot;&gt;Variance Parameters&lt;br&gt;&lt;font style=&quot;font-size: 10px;&quot;&gt;(energy, breathiness, etc.)&lt;/font&gt;&lt;br&gt;&lt;/font&gt;" style="text;html=1;strokeColor=none;fillColor=none;align=center;verticalAlign=middle;whiteSpace=wrap;rounded=0;" parent="1" vertex="1">
          <mxGeometry x="392.97" y="660" width="130" height="30" as="geometry" />
        </mxCell>
        <mxCell id="FjPlvFc2R7vJgaK0KZA3-7" value="" style="endArrow=classic;html=1;rounded=0;exitX=0.5;exitY=0;exitDx=0;exitDy=0;strokeWidth=1;entryX=0.75;entryY=1;entryDx=0;entryDy=0;" parent="1" source="FjPlvFc2R7vJgaK0KZA3-6" target="gMzeuS7BrVqeg4yIgOCW-10" edge="1">
          <mxGeometry width="50" height="50" relative="1" as="geometry">
            <mxPoint x="625.97" y="700" as="sourcePoint" />
            <mxPoint x="481.97" y="640" as="targetPoint" />
          </mxGeometry>
        </mxCell>
        <mxCell id="FjPlvFc2R7vJgaK0KZA3-11" value="&lt;font face=&quot;Times New Roman&quot; style=&quot;&quot;&gt;Transformation Parameters&lt;br&gt;&lt;font style=&quot;font-size: 10px;&quot;&gt;(gender &amp;amp; velocity)&lt;/font&gt;&lt;br&gt;&lt;/font&gt;" style="text;html=1;strokeColor=none;fillColor=none;align=center;verticalAlign=middle;whiteSpace=wrap;rounded=0;" parent="1" vertex="1">
          <mxGeometry x="521.94" y="650" width="92.06" height="50" as="geometry" />
        </mxCell>
        <mxCell id="FjPlvFc2R7vJgaK0KZA3-13" value="" style="endArrow=classic;html=1;rounded=0;exitX=0.5;exitY=0;exitDx=0;exitDy=0;entryX=1;entryY=0.75;entryDx=0;entryDy=0;edgeStyle=orthogonalEdgeStyle;" parent="1" source="FjPlvFc2R7vJgaK0KZA3-11" target="gMzeuS7BrVqeg4yIgOCW-10" edge="1">
          <mxGeometry width="50" height="50" relative="1" as="geometry">
            <mxPoint x="412.97" y="690" as="sourcePoint" />
            <mxPoint x="462.97" y="640" as="targetPoint" />
          </mxGeometry>
        </mxCell>
        <mxCell id="FjPlvFc2R7vJgaK0KZA3-22" style="edgeStyle=orthogonalEdgeStyle;rounded=0;orthogonalLoop=1;jettySize=auto;html=1;exitX=0.5;exitY=0;exitDx=0;exitDy=0;entryX=0.5;entryY=1;entryDx=0;entryDy=0;" parent="1" source="FjPlvFc2R7vJgaK0KZA3-18" target="FjPlvFc2R7vJgaK0KZA3-21" edge="1">
          <mxGeometry relative="1" as="geometry" />
        </mxCell>
        <mxCell id="FjPlvFc2R7vJgaK0KZA3-18" value="&lt;font face=&quot;Times New Roman&quot; style=&quot;font-size: 16px;&quot;&gt;Mel-spectrogram&lt;br&gt;&lt;/font&gt;" style="text;html=1;strokeColor=none;fillColor=none;align=center;verticalAlign=middle;whiteSpace=wrap;rounded=0;" parent="1" vertex="1">
          <mxGeometry x="315.97" y="520" width="134" height="30" as="geometry" />
        </mxCell>
        <mxCell id="FjPlvFc2R7vJgaK0KZA3-19" value="" style="endArrow=classic;html=1;rounded=0;exitX=0.5;exitY=0;exitDx=0;exitDy=0;entryX=0.5;entryY=1;entryDx=0;entryDy=0;" parent="1" source="gMzeuS7BrVqeg4yIgOCW-10" target="FjPlvFc2R7vJgaK0KZA3-18" edge="1">
          <mxGeometry width="50" height="50" relative="1" as="geometry">
            <mxPoint x="532.97" y="570" as="sourcePoint" />
            <mxPoint x="582.97" y="520" as="targetPoint" />
          </mxGeometry>
        </mxCell>
        <mxCell id="FjPlvFc2R7vJgaK0KZA3-33" style="edgeStyle=orthogonalEdgeStyle;rounded=0;orthogonalLoop=1;jettySize=auto;html=1;exitX=0.5;exitY=0;exitDx=0;exitDy=0;entryX=0.5;entryY=1;entryDx=0;entryDy=0;" parent="1" source="FjPlvFc2R7vJgaK0KZA3-21" target="FjPlvFc2R7vJgaK0KZA3-32" edge="1">
          <mxGeometry relative="1" as="geometry" />
        </mxCell>
        <mxCell id="FjPlvFc2R7vJgaK0KZA3-21" value="&lt;font face=&quot;Times New Roman&quot; style=&quot;font-size: 20px;&quot;&gt;Vocoder&lt;/font&gt;" style="rounded=1;whiteSpace=wrap;html=1;strokeWidth=1.5;fillColor=#e1d5e7;strokeColor=#9673a6;" parent="1" vertex="1">
          <mxGeometry x="292.94" y="440.13" width="180.06" height="50" as="geometry" />
        </mxCell>
        <mxCell id="FjPlvFc2R7vJgaK0KZA3-32" value="" style="shape=image;verticalLabelPosition=bottom;labelBackgroundColor=default;verticalAlign=top;aspect=fixed;imageAspect=0;image=data:image/png,iVBORw0KGgoAAAANSUhEUgAABJIAAACqCAYAAAD2i2XMAAAAOXRFWHRTb2Z0d2FyZQBNYXRwbG90bGliIHZlcnNpb24zLjcuMSwgaHR0cHM6Ly9tYXRwbG90bGliLm9yZy/bCgiHAAAACXBIWXMAAA9hAAAPYQGoP6dpAABcMklEQVR4nO3dd3hTdRcH8G+694IOaCmlUChllL03ZSsoIgguVNwiuJAtsp0oLkBEX1QQFBBlyp5llNEWyuhkFVq69877R2lI2uwmuRnfz/O8z9skN/eeSpPcnHt+54jEYrEYREREREREREREKlgJHQAREREREREREZkGJpKIiIiIiIiIiEgtTCQREREREREREZFamEgiIiIiIiIiIiK1MJFERERERERERERqYSKJiIiIiMjAissqEXM7BxygTEREpkYk5qcXEREREZHBiMViNJu1S3I7ZfkoAaMhIiLSDCuSiIiIiIgMKC2vVOb2H2duChQJERGR5phIIiIiIiIyoN2X7srcnrk1VqBIiIiINMdEEhERERGRAX38b5zQIRAREWmNiSQiIiIiIiIiIlILE0lERERERAZy7V6+0CEQERHVCxNJREREREQG8vpv5+TefyuryMCREBERaYeJJCIiIiIiA0nKKJR7/+XUPANHQkREpB0mkoiIiIiI9Gx9ZAqCZu5U+PhrCiqViIiIjA0TSUREREREejZ/+2WV25xMyDBAJERERPXDRBIRERERkR4dvJqm1nYXbuXoNxAiIiIdEInFYrHQQRARERERmStlS9pqe7JzAHKKy7Hqmc6wthLpMSoi85NbXI4dMakY0bYRvJzthA6HyGyxIomIiIiIyEj8ee429sWl4eDVdKFDITI57266iDnbLuHl9VFCh0Jk1phIMlKnkzLxxX/XUF5ZJXQoREREZuXTPVfx6q9RqOBnrMGk5hRj5pYYXLuXL3QoBpdfUq7V815ez79RIk0deJCAPXcjW+BIiMwbE0lGasKaU/jmYAI2nrkpdChERGRCuGJdsfLKKoxfHYnvDydi7+U07Ii5K3RIFuON38/jj7O3MOLro0KHYnBxqXlaP7ftgr06jITI8ojFYuyISUVyRqFa2xeUVqCqSoxX1kfhxV/OoqpKjNvZRXqOksj02AgdACmn7pseERGZr3+jU1FcXonR4Y0RdzcPIT4uuHovH50DPVElFiO7qBxpeSVYdzwZMXdysWNqHzjYWqOySoyMglIs3BGHl/sGo0MTD6F/FUHN+/sSziRnSW7nl1YIGI1luXK3OplSZYF5ztnbYrV+bkm55hVJi3fEwdbGCh8OD9X6uETmoKKyCvuvpOGtDRcAACnLRynd/tDVdLzwy1mZ+4Jn75L8fOC9/vB2tYebg63ugyUyMUwkGYnC0gocvJqOAa284Sr15sQLy0RElq24rBJTN1afBM/4K0bmsR7BXjiVlFXnOWuPJaGFjyumbjyP8srqD5KdMXdxYd4QZBaWopG7I5ztLe8U4I+zt2Run03OwrM9mgoUjXkrraiEvY210GEYhcT79bsomFlQigYu9gofv5dbgq/2X8dT3QJxI7MQa48nAwCmDmoBJzvLe50T1Wg5d7dM8vqZtaex5rnOcLCxRpVYjG8PJeBuTglKKioxdVALLNoRp3R/g784AnsbK1xbPELPkRMZP366GIkP/orGrth7GBTqg3WTuwodDhERGYlOi/YpfExeEgkAPv/vutz7Oz7YVyN3B0TOGlz/4ExIlZxSmH+iU7FyYkcBojFv3x1KwGd7r+G3l7qjT0hDnE7KRGkFe/1o67l1Z7Dz7b5yH/v99A3M2XYJQN1Eac2f/L3cEny65yoe6+iPfi299RorkZDi02R7sNV+2z+ekIGw+XvR3NsZbRq745/oVMlj2y+mQh2lFVU4m5IFTyc7tPBxqXfMRKaKiSQjsSv2HgBwQgcREckoLq/U+T7v5pbgbEoWugZ56XzfxurI9ftCh2AxPtt7DQAw5+9YHPlgICasOSVwRLpV04dMJBKhpLwS9jZWEIlEcrfNLdau0ba0y6l5uJ9fCm/Xh1VJ0bdy8PYfF3AjU3HvlpFfH8PNrIePb71wR+XSHl24nV0EDyc7uFhg1SMJ505OMcavjlRr28T7hfWqFHxyVfVxDPF6IjJWfIcnIiIyUvqc3PnkqkhsfaMXOgV66u0YxiRPweSsgtIKfuElhcoqqvDJnqvILCiFm6MtPnq0DTp8/B/ySyvwz1u9MfrbExjWxhern+0i9/mX7+TqJI7kjEKZRNIza0+r7PElnUQylJuZRej32SE42VkjbuFwgx+fLM/ZlCxJYoeIDIdT24iIiIxUyJzdet3/v9HqlfKbs2ErLG+KmKEoq5YxFV/su4afjifj74upWB95A2uPJUkSOKO/PQEA2Hs5DSUKKgfn/n1JJ3HUNCuvoW2j+FVHEmVul6lYchiXmoeDV9PU3v+JxAwAQFGZ7ispiWrsjLmLxTvi8G90qlEkkUorKvHWhvPYHHVL9cZEZoKJJCPHMc5ERJap0gDjrX4+kYLUnGK9H8cY/Bl1W+79dyzk9xfKLQGqYnRFLBZj9ZEkmfv+PCf/7yh03h659yfpaPruR/9c1sl+lu++KqnOi0rJQsu5u7HyQLzC7UeuPIYXf4nC1Xuyiaz0vBIs+Ocypv9xASlKfsct527jfydTdBI7UX5JOZbuuoI3N5zH2uPJkkEUQtscdRs7Yu7WGYhBZM5Yy20ELqfWr+y5poGolZX89flERGR6Ir48YpDjnEnOwmMd/Q1yLCEdT8hQ+Fh6Xgl83BwMGI3l6PvpIZ3tq7SiEuduZKNLUy/Y2ej3WujaY0lYVSuJBAAJ6QV6Pa4yYrFYYS8mTbRf8B+8nO2QVVgGAPhy33X0b+mNdv7uyC+tgLujLXbG3MWf5x5WVySmFyLUz01y+5mfTuN6WvV/i8ikTJyeHSH3WO/9GQ0AGBLmi8YejvWOnSzXrawifLLnKnbE3BU6FIlj8fcRczsXJ5R8vhCZKyaSBJZ0vwCjVh7X+vlVVWIM+6q6LH/v9H5MJhERmYlkHVUyqDJ900W0C3BHc2/znD6TmlOM67Um+dR2M6uIiSQDKimvhIOttcbPm7U1FlvP3wEARLT2wWfjwuHpbKfr8JBTVIbFO6/Uez+Klrtp67O91zBjeKhO9lWTRKox5rsTkp8butgjo6BU5vGj1+9jRFs/HLyajnUnkiVJJABIy5Pdtob0e1iBiqV45ZVV2H3pHno089L4tSgWi3EtLR8tvF1gY615gnHLudto5OGAXs0bavxcMox7uSU6TUrryrM/nRE6BCLBcGmbwC7eylH6uKqFDVlFZYhPL0B8egFydDAZhIiMX05RGdYdT8aSnXGY/scFuWPNyXSVV1ZhR4xhexcN/sIw1U9C6LX8ICb/fFbpNudvZhsoGgK0781Vk0QCgP1X0jF900UdRfSQWCxGh4X7dLKvw9d0Oynw+8OJqjfSgdpJJADYFHUL41dHYsr6KJxMzKzzeNL9AiTeL4D05czHpJJTqqw5moS3N17AiK+Pydx/I7MQvZYdwLrjyXKftzv2LkLn7cHwr47hAy2WFcWl5uG9P6Mx6cfTMvfnFpWr7B8lT35JOd7ZdFGjvlKWRJuWHWKxGG9uOK+HaIioPphIMhFisRhpeSVy7hcgGCIS1DubLmLhjjj8eKy6AezSXfW/ck7GYfWRRITM2Y23NhhH3wdLsXTXVaFDsCjH4jOQkK68SkwdR67rNlEDAD8c0T5ZU7tVQUWV/qYuCiHqhuKE66AvjmDwF0dkqrBypS5wqjpf3X+lOvGSWViGvy88TBjO234ZqbklWLgjDkB1kquorAJHrt/HiK+P4fXfz6P0QcJnm9Tz8kvK8dPxZBy+lo7SisoHMYjx1obz6PfpIUmyXrpHXM1FmfT8EoQv/A+DvjisPGg5vt4fj20X7uDFX6I0fq6xupyai5+OJ+O1X8+hqEz9Ju+pOcV4a8N5nHzQgH3+9kvo88kh5CuYoKnIwavpOKfkb4+IhMGlbUau5oN30Y4rWHciGcvGtsPEboFyt+WiNiLLcKjWVe61x5Px+oDmaOBir+AZZCqW7RYuoaHtciPSv8yCUpy/mYMTCRlo2sAJIT6uKK+qwobTN+HlZIdPxrUXOkSN/BOdin+iU5GyfFS995VXUg43B9t67aO4rBKzt8ViWBtffLVfceNpVfbFpaFNY3fJbX0khG9nFyElw3gbmCtqXp9TVKa0x9OFmzmSn6dvuojR4Y1RKRbjqFSyMD2/BN2WHFB6/B5LD2DVs50xc0sMrt6rTlb2CPbCH6/0xIVbOZL+Om9tuICewQ3w+X/XJM8Nnb8H0waHwNWh+uvR7exi9PnkIKZHtIS/hyNSMgsl5+DJGYXYFXsXz/cKgov9w69Td+Vc9K2hqx5XhnA8PgPvbr6IeY+EyTS0zvipFD+/0BU/HktGr+YN0CO4AYDq/x47olMxuXcQXB1scTIhA5PWVld57Yi5i4vzh2B95A0A1YMPXuzTTO1YTK1h/6ytsWjl64Ldl+7h8yfD0cTLSeiQiPSCiSQlTiZmYNv5O5g7KgzuTvU7SVFE3c+TdSeqS3qX7rwik0iKTKpbXkxE5qvmymptnRfvR/ySEbASiWDNXmkmSfoqvBDu5BSbbZ8kY5RTVIYLt3LQL8Rb6Wt2X1waXl6vvLqhXYA7PJ3sMKp9I12HafQ2n72FKX2D67WPNUeTsO3CHZmKFm1IV90cj9dP892P/42DvxE3rf7xmPwlaBPWnAIA9A1piLXPd4FYDKWJ6wlrIuv8nj8p2Le0e3kldZbUnUrKQs9lB+r0rOq8eL/M7bKKKny295rMfbezi/H+g4bhALA/Lg0pmYVIvF/d/2n7xTv4753+kselK5wqKqtw4VYO2ge448+o2/hq/3X8+lJ3tG70sGm5salJdj3zU3USqPZUtKgb2Wi34D8AwMoD8Zg5IhRlFVX4ct91ANWvJW9X+zrTCqWXi269oFki6a/z8iclGquNZ25Kfu776SEc/3AgAjydUFRWgbKKKng4yfZ1K6+sQnF5Zb0T4kSGxkSSEjXrpW1trLD08XYCRyPf21Jv8IqSUreyivDOpouY0jcYw9v6GSgyItKHjadvKnwsZM5uAMCOqX3Q1t9d4XZkfMRisV76vWgWg6CHtzijVh7HnZxidGnqib9e7yXz2M3MIhSUViDY21llEgkA5v59CQAwrM0IrZoNC+XK3Ty1v1Qr6q2iiwqP9HzFVSSauHTn4dK2ayoavGurpLwSv5xM0cu+DeFYfAZaz9uDKjEQPX8oCsoq8Nqv5+psdzYlG2chu5xp9dG6U/TUdTdXN//GB66my9yuaTq+IyYV644ny1RWtXjwmSxtxl8x+HdqH5SUV2Lv5Xto3cgNIT4uEIlEyCkqw5bzdzA6vDG8XQ1fYXzuRjae+OGkRs9ZXquKNr+0AvkqGqtfupOH+LR8BDV0hm2t96vKKjGOXE/HmeRs7L50FzcyTasaSZ7JP5/Fxpd7oOuS6sRl7IKhcJVKGg376iiS7hdi9bOd0cLHhRd0yGSYztmGgDYo+eKmD9INuMUq220rVl5ZhbKKKszeFouoG9l47be6H9REZFoW/BuncptHvtF+EiQJY1+c8I1ZaypfLZW8PoT6EpeaJ1kCJK/vTL/PDmHkymMInbdHo/22mLNbZimQsavdWFmZZrN2yb1f28bdYrEYNzILIRbX50xLlnSSYdEO1e/V2jhlBpXoNfMhwhf+h97LDyL2Tq7yJxi562n5eGvDBZyXSiIpUlhaXZUy468YTPvjIoauOIpms3Yh6X4Bpm+6iEU74jD55+pJYBWVVbiZWYToWznYfPYWcovq9ha6npaPTDnN0ZWJT8vH+NWRiHzQNL28snqZrKZJpPoYsuIoXpAzBOHHY0l48ZcorDqSaBZJJABISC/A9E0PL/xfT8vHjL+i8eWDZZVJD6rbXv31nNLBFxWVVbifr9m/NZE+sSJJgWPxsidiWYVl8NLDiFmRnM5G46TeyFNzZE9slZ3sSO9LLBaj7yeHUFhWYdQl0ESkvjVH1W8C+9upG3i6e6DJ9GOwdK/IuSJvaBtO38RHj4bB3sYy+yR1X3pAJz171DFypfwEilgsrlePHgB4bt0Zg/0eupBdWAZPFedXCekFCh9TNf1WkR+PJZlkk/XySpYOGpuhK46qvW1SRiFazq1bqTRIKoFwOTUPlVXiOhVNM7bEYMOU7sgsLMOK/dfRKdATf52rXvY1KNQH9jZW+OGZzpLt7+YWw8nOBu6OskumXvn1HJIzCjHxx1MI9naWJDIM7XhCBoJm7sTQMF94u9pj8WNtsfnsLUFi0bcTCQ8TwLtj72FzVPW/m7wlfjXVl7XP355cHYkLN3NYdU5Gg4kkBZbVOrnILtJPIkmeCqlR3gevpmN9ZIrc7V6vVWGUXVSGWdtiML5LE/Rs3gD3HlxdTVXQ+JCITMf1tHyNvvTM/fsS8krK8Xr/5kwmkdoqKsWw55mBwX1/OAFPdQ1E4v0CfH2gfokkU5NdpDqRpKg3XI20vBL4ujlodFxTTCKR5Wg+W34FXk0DawAyCaCDD6rhvt4fj2kRIcgoKEXPZQcBQJJYFovF+PlECpKl+hcJlUSS9t+DitzfDbwCRChrjz+s/p21NbbO4+NWRaJKLMbPk7tK+indzy+VLJvccv42E0lkFLi0TYGqWmvxFa3NN4T52y/XiaOgtAK7L92T2W7Z7ivYFXsPk2uViqr6Enkzs0jjUZxEZFi3szUv8f50zzU8teaUoO9fpFrtBrBC0naZENXPp3uuodOifRovUVHk4FXhl0qqS9lI+Ro5cpb0SFuop2Vk2krJEP7LOVmmFfuvIz4tH5dT8yT3PbUmEi3n7sbey2lG91qxdLW/ywHVvaou3MxBh4X7MOTLI5j04ylJfyUA+PlECp796TQS0vXTh41IXUwkKVBZVTuRpJ/jlFVWabR9YVklpm68gHu5dauMtFlLnHS/AP0+OyTzBkVE2iurqMKeS3eRU1RW57G1x5Kw7cJttRI76XklkpOE8soqXFSj94I8p5OzcDo5S6vnkv5VVokl/TCMwUw5V0ctSVmFZp/Juvbab+d1sp8Xf4lChYbnF0KZ8VeM0v/u2y/ewdNSVRjyJKQV4HKq8fTZGfD5YaFDIAs2ZMVRHLzyMJl8KikLZRVV7JVqguLTC3AysW5ftGPxGYj48qjGF3+Ky4znwhWZPiaSFKiTSNLTceZuu6Txc/6NTsWu2LoZ7Kv35GemlRUkHU+oHk9bUm4aJ5xkvi6n5mL57qsoUDHtw9h9ue86XvvtPCb+KPvFJ+l+ARbvvIJ3NkXjqTWnFH7JE4vFEIvF6Lb0ACK+PIpzN7LQau5urDyYoHVMT605haoqViUZm5fXR6H57F04lcREn7EwRHWurqqOVNl6vn6j7A2pXMH7YXllFab9cVHl86+l5WPUyuP4/fQNtY53NoWvOTJv/4tU77VApk3d9zwA2Bx1C63n7zH4ECkyX0wkybHxzE0k1SpL3nhG9y86sViscUVSDVVl3tq6m1uMlQfiUWjiX+bJ9IxaeRyrjiRi+e4rQoeitZOJGVh1pLoh9pW7eTKP5RY/fM2eTs5C2Py9da7CV1WJ8fj3J/HMTw+TUE/8EAld5IBe+KXudBQSTlRKllFMaiNZKQaYEqSo0bauzdgSY5Dj6JO8ZR/KzFHz4tyqw+oPLiAiMlbKqjlrV7/P+Kv6M2H2NtnKY15oJG0xkSSHvMZnP59IwR9nbuJWVhH2x6XppOfIjpi7Wj9X1bDaPx9MA1C5n1q76bnsIL7cdx1tPtrLEZMkiN9O3cT5m6p7ZhijST/KX35xJjkL6bVeT2WVVVh3Ihkvr4/C+NWR6L38II7G38fFWzky0z105cj1+4hLzVO9IeldYWkFxq2KFDoMhSy5p9a7my/qdf+5ReVIy+Nna20VCr7IvL3xgtz7tZGcUYjdsXchFotx4EFjYn14fp3xLFUlIvN2/mYONp65iTnbYnEr6+GFkENX09Ft6QEcvX5fybOrp2Z2W3oAc7ZZ9rJ20g4TSRqYuTUWfT89hCnro3BYxQtTHfLWvKrr5xMpSh+f+/fDq3Lqzmuq/eVh6kbd9Gog0tTY708KHYLORKVkYfzqSLwqZ7z78t1XsS8uDWeSs3Anp7hOo3xde3KV+fx3NWX/UzCJ01j8cjJF6BAEo02vQU2EL/xPr/uvzVT6JPX79JDC5W31lVlQigGfHcLAzw/j9d/P48AV/SWRgOqkPRGRoczaGovfT9/E8+vO4NKdXJSUV+KFX87ifn4pnlt3BlmFZRj5tWwlbM1nw/8iU5BRUGoxE/NIt5hI0tK7my4KHYLapKe21fSf2Xz2Fp5ee0qmH0Ttkyv27SBNVVWJUV5ZhdScYmw8c1PtaVTmWlabXVhmVJUnhWWVOHRNv1+iSLVzKcZdcfeDhS/7OafGFDFT8dspw/ZJuXYvH5ujbmn8vNziclxT0OdRU5fuyDbdfu/PaJkli1PWR+nkOERExiQpoxCPfHMcg784InN/p0X7EFer3ULr+XswfnUkvtofb8gQyczYCB2AqcrWU48ifZCuSLp2Lx+dm3pKeidIL6Ex1eVEZDzGfHcCNzILkVdSnbCctTUWw9v4IcTXBVvP38E3kzqiU6Bnnef9fdF0msJq4mUj/MLyws9n8d87/dDS11XoUCzG3dxifL73Oib3CkK7AHe9LqvRBVNveF9fcXfz0Llp3fep+pI3yVHfjidkYnLvZgY73rCvjhrsWIo88s1xzBoRiv/i0vDpuPY4fI0VQkRkOe7k1J3sXVt5pRhnak30/TUyBc/2DNJTVGSOWJFkATILDX/ySpYp9k6uJIlUY8/le/jmYALu5BRj7Pcnse54cp3nnZVToZGWV1KvWPbHpeF0ku57DWkiykgrG+b9rfm0SNLetI0XseX8bTz67XEUlRl/kqbIwscD38lWfRKuDSEqvfZfscyG7st2X8W5G9l1rswTEZF887ZfximBz5vJtDCRZGG2nL+NhPQCuY9VWnCDVaq/vy+oV1W0cEcc/rt8D2KxGCcTM5CeXyJ36kSklj3EqiefncCU9VGYsOYUcg1QPSgWi/XepFeXTifrd9mqWCw22+WK2rh672FJ+aIdpjuVEKi+0mnu/7arjiTqZXJpam79kuPmjqcgRETCemrNKUTfykGlmX/Ok24wkWRhNpy+iYgv5V+hW30kycDRkDmZrkHfsFd+PYfn1p3BpB9Po+eyg9hyvu6UQVWTCRU5eDUdF27mSG6HL/wP6/Xc3Djmdi62njet5Xna9DFR1yPfHEfw7F2IT9NNzxNTJ/0FeeMZ02hoKW8Z1j/Rqei9/KBGr3VT1X3pAZ3v89/oVJ3vUx1CLKnThdq9joiISP/GfHcCbT/aiwtseUIqMJFUD81n70JeifbVDvKqMIgsxbH4DABQeNVjzjbNl19lFJTKbaQ6f/tljfeljt9P38CTq04avKGtLsz4K0btZujqunYvH8/+dBqXU6srcIasOIp/BPrybEyqTLDUYuGOuDr3fXcwAQAs4t+0dp+okwkZmLjmlEkmZaQT66bkjd85OZaISAjF5ZWY8VeM0GGQkWMiqRZN+rJUVokx+IsjeGvDea3G1sqrwiDjUFJeie0X7yBbR/2l9DXW2Jxp06fl6R9PK3yspLwSu2Lvqlzqlp5Xgjd+P4eTiRkQi8XYcPqmwilOc7ZdwtmUbPx5zjRfyyv2XdfZvu7nl2LYV0clCcIab2+8AADIKynHO5su4rAFTo0rNMGeQ6ZWYacPMbdzAFRX9ExaexqRSZnosHCfVvsSMgFlqCUK9T1O7SrUm1lFCrYkIiJ9K2XBA6nARFItr/56TqPt7+eXYkfMXeyIMc8rtDO3xEBsglfT62Pv5XsInbcH0/64iI6L9tX79//uUAJC5uzGoWvpSMko1FGUupNRUIoKM0h0bb94B9eULKVavDMOb/x+Hs//fEbpfmZvi8Wu2HuY9ONpjFsVidnbYvHEDydx9Pr9OhMuTN3qo/VbzlpUVoGt528jaOZOdF2yX+F2lVVivLI+Ctsu3MHkn88ysWpixGIx0vNLcDvbtL7Yi8XievVIG/3tCQDAK+s1Oy+QZ56eqiLVsWy3YfpyJdfz883CTjWIiIwak/mkChNJtVy8laPV85Lva3YC9fX+eK2OY2h/nL0lWaZiCcavjqyTTOy6pH69Mj7bew1A9dj1AZ8fNqovY7+euoEui/ejxZzd2Hv5ntDh1PHxv5cRn5avVjJv2h8XlT7+26nq3jTyXuNpeSU4cv0+Kqtkx6FKVyI9t+4Mxq+OxJYH1UfavlcYG22//N3KKkLY/L14d3O0ym2bz96FU0kP/7u2mrvbKJOqJKukvBJf/ncNzWbtQrclB0yusmre9ksIX/hfvfZRVSXGmRTZBLI2S0IvpwrX7ydRw/MToSRnFOLNDeex4J/LFncBi4jIGLFXHSnDRJKOrDyYoHbz2mv38rFiv+6WlOibqtLGqioxjl6/j8yCUgNFpB8t5+yWW3GSUVCKkV8fQ2mFbr5Exdw2jjflP87clBkDr2k1niH8fCIFQ1YcRbNZu7Dh9E20nLMbUVJf6sRiMa7ey9O4oqqsogo/HU9GfFo+Lt3JRfelB/D8ujMY+Plh5JUon9b03p/ViZN1x5M1/4WM0MDPD2PTWc0aQOeVlKPvp4e0PmaVuLpCjH3ijFvovD1Y+aAvkimqSR7Xx4Q1kXXuy9RwyXNVlRhJJpLMqZ/6JX+mb7qInTF38cvJFDSbtUtHMRERkbbq0wuYzB8TSTo0468YXLmrunrH1F6Uyq6+pueVYOhXR/HcujPovHi/5At9VmEZ1kemmERyqaKyCkEzd6JMSTIi7m4eWs3dg3QNemgBkJt8MpYLrTO3xta5b8y3x7XalyEq7GZvi0VZZRXGrYrErK0xiE/Lx+qjSRj+1TG8omES7OX1UVi0Iw5DVhzFI988/J3VLeM9Hp9hVg2HVx7QLFnQfkH9qjwAYP+VdAz8/HC990OkT2dT6vZH07Qi6cBVy+gLpioJT0REpkUEkdAhkBFjIknHRnx9DHkl5ZiwOhKf7LkqdxtjSSSo6+m18hsYv7c5Gt2WHkBCeoHkvhZzdmPUymPotGgf5m+/jM6L9+t8MpQu3ckpRos5u9XevtvSAxqNcG41d0+d+97ccB4J6fkoFnCZyBYFzaGjtayWMnSF3cYztzBkxVEs3139Gjuo4Re1I9fv1+v4z/ykuKm3KbqTU6z2tqkabKvL45JxMeb3dX3TNHG+6ax61cqGUl5ZBbFYjNScYtzJKUZucTluZBbWe9n1YjmT/oiIyHSZ4tRZMhwboQMwRzVX608nZ2FAS280a+gMHzcHgaOqH7FYDJHoYVY6KiVL4dS52j2VQuftQdLSkbCyUpzVvpFZiFVHkpCQno83B7ZA56aeuJNTjKyCMvRq0VA3v0Qt529mY+z3JzV+3tSNF/C/kymIupENXzd7/PtWH43/fSO+PAoAuPTxMLjYP3wZisViRN/ORbOGznBzsJH5b64rs7bGYuOZ+i/5IPNy9V4eQv3cVG732HcnDBANGbtvDybg/WGthA5DIX1OKvsnOhUrJ3ZUe/v9V9L0FoumVuy7jq8PKE6EPd+zKWaNbA0HW2uN933+Zk49IiMiImPz9NrT+GZiRzwa3ljoUMgIMZGkZxPWnAIArH2uC1o3doO/h6NJNpHcGXsXj7R/+Cby90XNRkMHz96FlOWj5D6WeL8Ag784Irk9+eezMo8f+WAAmjZw1uh4qsTeztUqiVQj6kET5rS8UnRbekDu73Y/X/WyvphbOZJEWV5JOV74+aykwXPvFg3w+5QeWseoiKok0rrjyTgWfx8TugZieFs/nR+fjNOYb0/g2uIRKrdLV+Pvmszft4eMO5FkDIrKKvSa0NJUVEqW0iQSAPwv8gb+F3lDcrtrkCfGd2mCcZ0D9HJhg4iIjNvUjReYSCK5mEgykCnrowAAe6f3w9H4+i2rEcLBK+kyiSRt1szezi5CgKeT5HZFZRWibmTjqQfJNkX6f3YY0fOHwt3JVu1j3coqgkgEmeMBwP64NMm/hS7dzy+Ft6u9zH2ztsZo9Pza49NPJGTWqQQzhIUPliccunYfH49ug+d7BSnd/kamJTSRNX+lFVUoLK2As73ijwV9fClOSC9ACx8Xne+XLNcHf0bjTwXLd3UlIT0fLXxcJbeLyipw+Np9HLl2H5vUHLxhSHdyijFuVd3G4aqcTcnG2ZRsfPTPZcQuGAZrJZXFRERknvJLyuHqoP73MLIMTCQZ2NcHrmNXrPGNWVdJ6tzxlxPJ+PXUDcXbKtDnk0M4M2cwfou8gcikTMSl5qk9Tjp84X8KK5qk5ZeU44v/ruOXkyky94/p0Bg2VlYKl+PVV2RSJo7H38dbA0MQ2KA6ebX/iuq+PZPWnsazPZoq7KHx47EkvNKvudZx1fSvcra3hreLPWysNWuL9tE/l3E7uwjO9jaYNjgEV+7mIy2/BLlF5fhi3zXYWVuZzGhpUu3dzRex+tkuAIDIxEwEezvDV2rZZu3XlS68vfECdk3ri4LSChSUVMDP3fiXAadkFCK7qAwdAz2FDoXk0HcSCahenrzl9V7o3NQTUzde0Kh3nhB6Lz9Yr+cXlVWi+exdSF42kpVJREQWZuOZm/X6PkLmiYkkAzPJJBIeViBlFpRiwb/aN9TstuSA1s8NmrkT4QHu+PvN3vjfyRQs2XUFQ9v4YUqfZmjs4YiY27l4WUG10faL+j3Jf3vjBQDAhZs52Pduf43G0StLyn2y5xq6BHnh6/3xSLxfgIpKMdoHuGPVM52RWViG/JJyBHvXreaorBJjzdGkOg3f2/m7qx1XjR+PVY+5338lDZfuqJ5KSKZr7+XqXi4nEjIkTfalE7ibzuq+t1bc3TzczCxCv88OAQBOzRps9MmkAVLT5tg7wHI98cNJJCwZYfRJJF2KupGNrkFeQodBREQGVF5pPMu0yXgwkSRFky//lqammr2gVNjxvtG3c9Fs1i7J7Z0xd7Ez5q6AEcmKf1AB9Npvmo2jV6SySlynl9O9uBIcvJouWaJ3evZgmaoRsViMTov2Ibe4vM7+Yu9oN5UNAJNIFiI9vwR/SVV0lFVUwc6mupLtelqBoqfVS00SCQDWnUjG7JGt9XIcfbDk3gE5RWXwcLITOgxBaTL10xw8uSqyTnVwYWmFwim1REREZJ40W+di5nbGGk9CwthYsZRdbb+euqHWsrb6kO7z1H3pAXy29yoqq8RY8M9l9Fx2UG4SiUgdyfcLse3Cw2b6LefuNuio9zVHk/CpGX0pTbyvn+SbMYi+rX1iuraDV9OQZMb/rczZygPxWB+p+XJ3IiIyDaYwKIrffQyPFUlS/r6g2SQyS7Ip6hbEEGNyr2ZCh2L05v19yeDH/O5QIr47lGjw45L5mSCn+f2j3xxHjgE/oL8/nIhpESGwt9F8BLkQLt3JRVgjN1jJaUT87qaLhg/IhEQmZuL9P6NxJ6cYANTqhUfGobC0Av/F3cPqo0lCh0JERHokVB6pqkqMczez0aaxG5zsFKctfjiciE/2XMXSx9thUvdAA0Zo2ViRJOXirRyhQzBqm6Nu47l1p4UOg4gMLD69APfzSw16zJ+OJ+tkP2KxGLeyipB4v0BvV9Qe+eY4vth3Te5jeSXCLgc2RquPJOLXUzdw7V4+Jv54SpJEItOQW1SdVJ69LRbvbIoWOBoiItI3MaqXsxt6UvPsbbF4clUkwubvVbiN9PLq2dtiUVphuCp6S8eKJCnZRSyJUyWjoEzoEIjIAny65xreGNBC4+clpOcj4sujam/f0tcFPz3fFU28qqctFpRWwMZKBAdbzaqhvjuUiA+Ghda535zHpZ9JzkT/lt5qb19RWYXVR5Pw2V75STcyDdsu3Mbk3s30PsSCiIiMwzcH4/HlvusAgBMzB8Hfw9Egx/1DzlTr7MIybDl/G+6OthjdoTEmrImUefzSnVx0bip/KERhaQV+OZmC4W390FzOsCLSDBNJRERklCoqq2Bjrbpwdvnuq8goKJVpEq6u62kF6PvpoTr3b3m9p8ITEU3YmHEiSVHyTJHfTt1gEskMLPg3DpN7c5k7EZGlkJ7aFn0rx2CJpNpOJmRg0tqHq2M++CumzjZf7Y+Hn5sDPh3XHqJaPX4/2XMV6yOrz0VSlo+CWCyusw2pj0vbiIjIKH1zMEHhY9G3cnDlbh6CZu7EqiOJWiWRlHnih0jsuXSvzv05RZpVZfIE5aGTiZlCh0BERET1INRZTXpeiUwSSZFj8Rn489xtnLuRXeexEwkZkp+X7bqCbksPGLx1gzlhRdIDhQKPtSciIllfH4jH9IgQSTKmorIKH26JxZbzuk0aKfLab+fqNH9esvOKRvswhUknhqJOTq2kvFLjZYVERERkGLezi9Fr2QG81DcYL/XRbXXq9ot30MjdEe0D3BE6b4/MY5fv5mm0r/9F3oC1lQgbz9zE8fgMNPJwROL9hz2eagZFrD6SiOd7BaGsskqy3I2VSuphRdIDd3NLhA6BiIhqkZ4iN2/7ZYMlkWqcSpKtormRVaRw260Gjs0YaJIoq6xSve3GMzeZfDMB6vxbEhGR+Vmy6wpSc0uwaEecTvd79V4epv1xEeNXR9ZJIgHACz+f1Wh//0an4vHvT2Jz1G2k5pbIrVACgLXHk9H300MY/MUR5BaX43h8Brou2Y99cWla/R6WhImkB55fd0boEIiIqJYzyVloM38PgmbuxMYzNw1+/KfWnEJmwcOyZ2VJjnc3R6PKwr5gr9gfr/a2B66mq9zm43/jcFCN7UhYTPYREVF9RaVk4dFvjuPcjWzczhJ+gmtaXgme+ek0MgrK8PL6KKHDMXoWmUg6dyMLUSlZkts/HE7k+GEiIiNVWCbsKNeBnx+W/KwqT1ReVYWswjJUVYlRUl4Jc/++vfJAvNpJBXX/W7z0vyjczFRc+UXCqzT3P2wiItK7casiEXsnF0/8cBILdVzhpA0uZtOMRSWSqqrEKC6rxBM/RGLcqkhcuZsHsViMT/ZcFTo0IiIyUnklFdh2oXrZWlah8mbbrebuQadF+xA8exdC5+2xiIsU/0Trfgz8i//TrISdDKvzov1Ch0BERGbkppLWAYYyc2uszG3p85u41DxsOsvl99Isptl2ckYhxnx7HI919JfcN+LrYwJGREREpuKdTdEI8HRCckah6o2lFFjAIId/LqZiTAd/1RtqICG9QKf7I92yhL9rIiJS7sv/ruGNgS3w1f54PNMjEAGeTmo/1xgTMrX7KL298QJa+7li8c4rOHL9PgDA3dEWw9s2QnllFWytLaompw6LSSQt23UFeSUVWB95Q+hQiIjIBD25KlLoEIySOoNNcovK9R8IERERGczKgwlYeTABALDqSGKdSbfK/Hba8H0vtTFkxVGZ25fu5MHe1hov/HwWL/QOwvxHwix2wpvZJpJqj+27lW3+ywuIiIgMbf8V1c2xVx9NNEAkREREJJQbmYVo2sBZrW0/M9HWMt8eSpD8/POJFDjZWeODYaECRiQcs6zHenrtKTSbtQu5xdVXQAtKK3Dlbp7AUREREZknZSXqd3OL8f1hzRNJJxIy6hMSERERGVBkYqZa2527kYW8EvNYIv3docQH/5+AGX9FG+WSPX0xy0TSiYTqP+JXHozta/vRXiHDISIiMmvfHkyQe39ZRRV6Ljuo1T6fXnvaok7IiIiITNnR+PtqbffED+bVKiBo5k58tvcaNkfdxsVbOUKHYzBml0iqqKyS/Hw6OQtBM3cKGA0REZH5+2Lf9Tr3lZRX4pmfTtdrv98dkp+gklZeWYX3Nkdj+h8XkGoBU/KIiIiM0a7Yeyq32X7xjgEiEc6ha+ol08yBSGxml/te/TUKey+nCR0GERGRRUleNlLSm/DdzRex9bxuThZVNe988/fz2Bl7VyfHIiIiIu1N7NYEy8a2V/i4JRR5PN7RHysmdBA6DL0zu4okJpGIiIgMr9msXThwJQ1isVhnSSQAOJWUiaCZOyX/k5ZbVM4kEhERkZHYeOZWnc/qLeduI6OgVKCIDG/bhTsImrkTPZcdQGWVWdXsyDC7iiRLyHISERERERERGautb/TC2O9PCh2G4OIWDoOTnY3QYegcE0lERERERERERHqgapm+KTK7pW1ERERERERERMZg0Y44oUPQOSaSiIiISKcmdgvEgkfDdLrPq4uGo62/G5aNbafT/RIREZF+vNovGFcXDRc6DEGMat9I8vNPx5MFjEQ/zG5pW3llFVJzitH/s8NCh0JERGRRoj8aCndHW8ltXS03/+HpThjRrlGd+7su2Y/7+ZbTwJOIiMjYbX+zN8KbeMjcV15ZhZA5u4UJSAC7p/VFqJ8rms3aJbnP3HolmV1Fkq21FZo2cBY6DCIiIoty8L3+MkkkXWnoYi83iQQAZ+dE4MPhoTo/JhEREWlu48s96iSRgOrv6O8PbWn4gAQwc0QoWjdyg0gkwrTBIZL7zSmJBJhhRVKNe7kl6LHsgNBhEBERWQR5jSTrW5F0ffEI2Nkov+YlFoux9fwdvPdndL2ORURERNob2c4P3z/dWeHjYrFYpkLHnAR6OaFToAce6+iP/i29IRKJhA5J78yuIqmGn7sDvn6qg9BhEBERWazPnwyv1/NVJZEAQCQS4YnOAUhZPsosp6IQERGZgvYBHkofF4lE2PRKD8MEY0A/Pd8FR2cMxFdPdcSAVj4WkUQCzDiRBABjOvjj0PsDhA6DiIjIrCm6cDOucwACvZwMGwwREREZXERrX5XbBDU0rxY0nZt6YrAav7c5MutEEgA0a+iM1o3chA6DiIjIbI3p4K/wsaMzBhowEiIiIjK0Xs0boIWPi8rtfN0csGNqHwNEpHstfV3QxMtR5r61z3URKBrhmVfHJwV+fakbtp2/g8T7BWjp64qFO+KEDomIiEyMp5MtsovK1d4+edlIs+0FIM3FXj+nEn+YYfk7ERGRuWnk7oANL6v/md3W312P0eiHi70N/nmrD25lFWHm1lj0C/FGj2AveDrbCR2aYMy+Igmonvjycr9gLH+iPcZ1CRA6HCIiMkE73u6r1tU2AAh7MK3DEozrrPpz9dV+wRrts2uQJ3oEN9A2JNKz/i29hQ6BiIiMwIV5QxA5a7DQYejF6wOaS36e0LUJHGytEeLrii2v98K0iBB0t/DzFItIJEmzqnVi/8sLXdEp0EOYYIiIyCQsfbwd/D0c4aHGePuvJnTAplctp5pm1shQldsMaOWj0T5trS3u9MSkDGzFRBIREUFnFTmLxrTRyX506cPhofjtpe6Y0KUJpkeECB2O0bGIpW3SXOxtML5LADZH3QZQPapvw8s98OGWGGy/mCpwdEREZGxGtvPDhK5NAABWVsqrjC59PExvS72MkZOdNextrFVu17O5ZlftmjYwr2ac5sZSqu2IiEixxY+11fq5f77WEycTMuHqYINgb2d4OhnnErE+IQ3RJ6Sh0GEYJcs525Xy6bhwPNczCPcLShHsXb1M4eunOjKRREREdXz/dGfJz6qSRJaURAIAGxWJNWmdAj1w/maO0m1cHWwwJMwXM4errnIi4WiaGCQiIvNyffEI2NloXz3cNcgLXYO8JLfjUvN0EZZOdGjigRnDWgkdhtGzrDNeKabY5IuIiAxrUKjskixleZMtr/fUczTGR6zBtlMHheCFX84q3aZHcAN8Ob5DvWIi/Wvp6yp0CEREJKD6JJHkad3IcJ8rf7zSA0+tOSVz31cTOqBbMy80cndg1a2a2ISAiIiM3v53+wly3A9rVcbMGRWmcNvOTb0UPma2NMgkDQz1wYmZg5Ru4+agugcVGQc3B4u9FklERDomEonQSslFilfUHNrh62Zf574zcwYjYckILH6sLfa/2x89ghvgj1d6YNnYdpJtqsRiNPZwZBJJA0wkSVn/YjehQyAiolreHtQCLXxccWHeEIMeN9jbGa38ZE9qmjVk7x5pa5/votH2/h6O+PvN3pg7qrXcxyNaa9aUmwyPDUeJiEgfvhgfjgYKmndXVql35Uq6UuqdiJbY8nov+Lg6wMbaCs/0aCqZvtsjuAEmdguUbKvm7kkKE0lS+nGcLRGR0XntwfhVT2c7pCwfhTcHVt9+tV8wzsyp38jZv9/sjQvzhiBhyQjsntZXcv/cUa1x8L0B9dq3JdBm9G2HJh6Y0jcY5w2cGCTdeK1/9etv9bOaJRGJiMi0BTVw0uv+2/q7I2puhNzHKqvE+O2l7vhmYkdM6h4odxsAmNKnunJpYCtvTIsIQeemnmodu4qZJI2xLpmIiIyak53sR9UHw0Lx/tBWkvLjyFmD0HPZQY33O3tkKDo08ZDcbt3IDcnLRqK0ogoOtqonkVH9eMm56sjzOONnZ119DbJn8wZwsLVCSXmVwBEREZG+TY8IwdRBIZi1NQZd9LiUX3pp2ROdArDlfPWkdbFYLJmeNiTMF1YiYHCob53ei0PCfDG4tQ8auTuqdbzxXQJwMjETo9o30tFvYDmYSCIiIqP1xys95N4vfaLRyN0RKctH4VZWEWZvi8Wx+Ayl+5zUPRCzRoTCVU4/HpFIxCSSgBp5OAgdAqlgJdVx/tzcIWjz0V4BoyEiIn3a/mZveDjZItDLCSKRCJ+OCzfYsTsGekgSSf6eDxNDDrbWWPxYO7nPEYmAAA/1K6c+HRcOsVjM3khaYCKJ1GZtJVJ7fSoRkS700GDpVBMvJ/z6UncA1SXQhWUVKC6rxI3MInRrprurZx89GoaP/42Tua+pgnJvR1trFJdX6uzY5ubnF7riRHwG+rb0xq2sInQKVK8EnYyDsz1PI4mIzFWXpp4Il6rcNjRvV3v89lJ3HLyajud7Bcnd5sgHA9D/s8OS2/IuEqrCJJJ2eAZARERGadpg7Zv6WluJ4OZgCzcHW/i66bbK5YXezXDpTp7kKtmj4Y3x7pCWcrf9eEwbzPgrRqfHNycDW/lgYCs22DYVg0L5b0VEZCn+fK2nIMdd/WxnXLyVgyGtfWFlJZIsaZOnaQNnRM8fit9O30DXIC+48AKHwfC/NBERGaXJCq4+GZtvJnZU+BivcZE5+eJJwy1pICIi4eyd3k+wSp1hbfwwrI2f2tu7O9nizYEt9BgRycOpbbW82j9Y6BCMlgjA8rHy16MSEemap4IRsMZADC7znTOytdAhkAH1DG4g9zV5bMZAAaIhIiJ9auXnKnQIZOSYSKqluw77aJijCV2bCB0CEVmAPi0UlzGTcZjcO0joEMiANipofN/Eywk/v9DVwNEQEZG+dAr0EDoEMgFMJJHa3hnSks3IiMgg1r/YTegQlGNBEj3wUp9mQoeglt3T+upv53w9EBGZjVXPdhY6BDIB7JFEatn/bn8093YWOgwishDSI8ZNmTkn3431N1v7XBdMWR9lsOMFejkhZfkouY/9GpmCedsvGywWZUL9XBGzYCiW7bqCjWduafTcg+/111NURERkTDo08YCPq26HlJB5YkVSLWJeVZOrhY+LWX8hIiLj8dPzXYQOQaXpES3h6mCDNwY0V7qd2Iw/VGysjfMUIiLM16DHU7bke0xHfwNGopqbgy2WjW2P+CUjMLyNHxxtrVU+Z/ubvRHs7aJ0m5bspUFEZHRe7ttMo2mbjrbWWPMcq5FIPaxIIiIiozGirR8GtzZsIkAbgQ2ccHH+UFibSeUUac9BSTLGzcEWvm72SMsrNWBE8klfDLK1tpJZurA/Lg2RSZloH+COhi722BGTijPJWdg9rR/sbFQnDP09HPUSMxERae+9oa1gb2OF4vJKhM3fW+fxfe/0w5AVRzFzRChe66/8whhRbUwkCeTtQS2w8mCC0GFoZcWEcGw4fRNnU7KFDoWIzMznJjRenEkkUoerg61RJJKUiQjzlank6s1m90REJs3exkpyocPJzgbRHw1F1yX78fHoNkjNKUbP5g0Q4uuqcGk2kSpMJNViqFUIbfzdDXMgPXi8YwAe7xiAoJk7hQ6FiMyMs715fSxxSTC18nVFQnqBoDEsGtNG0OMTEZFh7JjaB9G3c9AvxFvmfndHW1xfPEKgqMgcmdcZu5Fr3cgNTnbWGNHWj72YiIgsgDn3SDIFLXxc9JrEWfxYW5XbfDQ6DDtj7+otBnWM66y4jxMREZmPtv7uaGvCBQtkOoyzU6aAPJ1t9bZvF3trbHm9F6b0DQZn5RIRyerS1FPoEMjMqJPo0dbIdn54pkdTldt5OdnpLQZ1OdqpbqpNRESm7ZkegUKHQBaEiaRaOgXq74uMq8PDJJU5XKS+snC40CEQkRn5dlInoUPQOS5tE8ah9wfg9ynd0aaxm873/d87/bD08Xb4dqL5/b3Wx8wRoUKHQERk0T4YxvdhMhwmkmrR5Ul/c29nAMAj7RuhQxMPLJTqUeDmqL/KJ117VsEVV0c7azxuZKONyXxsfrUn+rRoiP3v9sOqZziK1BL4uTsIHQKpqXeLBkKHoFSzhs56aRgdHuCOlr6umNQ9EFYm0my9rb/uk2nydGvmZZDjEBGRfO4m9P2STB97JOnRgfcGoKS8Uu5o4F7NjfskvMbrA5rjw+GKs9sDWnlj24U7Wu9/cKgPDlxN1/r5ZL66NfPCb1O6AwBa+Lji8PsDMODzw8IGZYGc7axRWFYpdBgmy9baNJINmlo+tr3QIQhi1sjWGj9H6Ol+TxqoP5KrmTXKJyIiIsVYkaQnX46vHmEtL4kEmM9yB183zSoIImcNkrn90+SuSF42Er1bNMCgUB9seb2XLsMjE+PmUP1FZOnj7eo8FtTQWWcjSuOXjMDKiR11si9zF7tgGOKXcMqHtoa39dP5Pn1c7XHo/QFY8GgYJnYTph+Cpfbc0SYxKBKJ4Okk3FViRVXFuhbi64ppg0MMciwiIpLF81oyNCaSdMzO2gprn+uCxzqYx5KvR9o3Uvp4dw1K2Ru62KORuyPOzxsCoHqaDlB9kv37lB5YN7krOjf15BuhBYv+aCguzh+CSd0Vfzk+8F5/jO8SUK/j2FpbYXR4Yzzf0zBfsEyZlZUIttZW2PxqT70eR59NkYVkb6P7hMuxDweiWUNnTO7dDMvGtoO/h6POj6GKOfT504aVlheB3h/WSseRqM+QS/DeGdLSYMciIqJqUwe1wOjwxkKHQRaGiSQdm9w7CBFhvoL3TpCeflSfpRVtGisfH6lJZdXe6X0BAF7Odrj08TDsmdZX7naavBFGtPbFgFbeKreb2K0JkpeNxLXFw3FmzmC190/6tevtvjgzZzAWPdYW0fOHQiQSwUPFhKPm3i74dFy4Vscb3yVApiquPpWBx2YM1Pq5pkL6faRbMy/0b6n6taYpXzd7/PNWbzytJHlIDx35YECd5JR0FciaZw3TT8ze1jJPH8IDPLR63oi2yi/K6MumV3oIclwiIjKcR9oziUSGZ5lngnoytqM/3jWSq3HSPRlEqPtlOfhBI/BHlSRtfN3sdRpTA5eH+3Oxt4GNteI/v+1v9la6r1A/VxybMRBrn++CX17ohtOzB+OXF7oq3P6NAS0gEolgb2MNH1cH7J3eT/NfgHRqaJgvwhq7wcfVAc/2aAp3DZd+bHldswqZRu4O+HRcOBq5P6zeeKVfsEb7kObqYINBoT5aP19Ij7RvhL4hqhsR156i9vPkrlg+th0auujuveHrpzqifYCH2Sz31aeI1j5o2sC5zv3jOgdg/YvdcH7eEAxt83Apna21SK1Ee23LxtZdWirt1X7BcHMwjYaeuv670vYikZeznU5fN+rqHmz8/Rgbuii/eEBERIqdmT0YrfxchQ6DLBATSTrS1t8Nn4xrr7AnkqF9JlWx4eZYtwHmzql9sf/dfuijg8k7f6tI+gCanyiGN/HAhpe7Kz1mEy8nyW1fNwcMaOWDmAVD5W5fu5dTKz9XpCwfhR1T+2gUF+lO16D6Tfjp3NQLPz7XRe3tPx1XtzlwYw9HJC4diRnDNV92IoIIrw9orvHzhDRjeCskLh2Jbyd1wq8vdUfS0pFYOKaNwmbAtaeoWVmJ8FS3QETNjUDXIE+5z9HEZ+Pao4cJfNE1FrUTezWsrETo19IbXs7V77OXPh6G8/OG4PriEfjlhW6IXzICzRo+TED1U1FZ9lRX5c2Z3xjQQsPICVC9VFzX/nlL9WezMXhr4MO/pxUTwtG5af3fW4iILIWPhv1qiXSFiSQ5mnvXveKrzE/Pd8GOqX1hq6TCxtCaeD2suqh9Rfbxjv5wtLNGCx/Z7PX6F7vJ3Fa3B0aHJh4KHxvYyhvjOgdgkxb9VXo1b4glj7fFqmc64Ysnw3Fm9mBcWTgclz4epjBh5+Zgi+RlI7HplR7oFOiBRu4O2P9uP9jZyP+3aevvjt0KltiRciPa+sFPyw+vJY+3xeTeQfWOYUiYL5zUaPp7ffEI9A2R/+XZ2kqENwa00Kg6aVT7RnB3skXXIC9Ezx+K5GUjMT1C8yazKctHYcUE7ZbpqcPfwxFPdg7Ay32bIXnZSLwxoIVM0sjKSoTnegYhcelI7J7WF/MeCZM8tmhMG6X73vxqT5mlb+oa3yUATbwc8em49niyi2GmSZmD3dP6qn2hwsXeBl7OdpL3fltrK0nStYGzHda/2E1h43pbaxFEIhF6K7jI8PbgEI2rB82FdDJOG7NGKp6Aqg8tfYW5Qq3pOVR7qXMIDyc7/PVa/fqxhQcoX5JPRERE9cdZrXJoMqr30fDGGNzaV4/RKLbl9Z544odIldtJ/zZXFw2HvVRSRboqRNVVamU+Ht0GucXleHtwCPp8chC3s4sBAKM7NMbjHbVvjPx0d82bIYtEInQPboCtb6h3NbZ1IzdcXTQcH/wVg3+jUzU+nqWJ/mgonOysYWtthaoqMVIyCzHoiyMa7UObf1dF/p3aB4NVHF9RIlHa7JGtMbytH1ztbTBkxVGl234nVRlS86Va04bHNb1sHu8YgHc2RWv0XFV+eLoTvF3tEd7EQ+0Ed+tGbmjdyA1NvZxQXF6pdNkrUP06++XFbmj70V614xrbyV/r/laWbMfUPmjdyK1e+2jh44LjHw5EA+eHy6s2vNwdk348XetY1Yn1tc91Rev5e+rsZ4hAn3fastbh0rYD7/av1/Ptbaxx6P0B2HD6Bg5cSUdSRqGOIntoaJgvbmYV4ZkeTQWrkP7ztV7otGif2ttLv3f6uNrXeznitjd6Y+ofF7Az5m699kNEZEht/d3Qv6U3vjuUKHP/OxEt8eupFGQUlAEAQnxcMGtkKGZtjcWX4zsIEClRNeMpoTEi6k5l6d2iAT6Ts1zGEPa90w+dm6q3NEj613GwtZY5SQv2dsH+d/vhwoNJatLkjWBX5PleQXj7QcPXdZMf9ipytTeNK9cOttb4ZmJHhX2WWvm6qtVTxpw917MpkpeNhLujrSQ5YWUlQrC3i6BxNfd2QSslV96vLR6u9r46BXoiRMur+N6u8vuffP1UB7nTDaV72dT0I9swpTt6Na/fUq+5o1pjRLtG6BLkpVWVZESYr8okUg0XextMULOqKLyJB094tPDWwBZo66+bCosATyc4SlXw9WreUOb1sf/d/pI+C45qVPqZAl3+HroYotGsoTPmjArDS32b6SAiYMvrvSQ/r5gQjjXPdcGe6f3wTA/hJlLWLLFUlwjV/dcWP9ZW5YAPdVhZifDdpE5qVasSERma9ICM6I+G4n8vdkP/lt74dmKnOhdaj80YiGkRITg7J0Lm/kGhvjg9OwK9W1j2dxMSFiuS5FD3Kt6UvsGCXfHT5MuuvGbb0movcasREabdleeWvq5YNrYdYm7nmFwz4gGtfJC8bCT+jLqNqBtZeGNACzjZWUvWH/8TnYq3N14QOEphLByjm/HsazXoa1RfP7/QVefj1397SX7vrv4tvdHCxwUJ6QWS+87PGwIvZzuM6eCPoJk7Fe7zwHsDcCurCK0buaFrMy+M/f4kYu/kahybq70NpvTVvoG4NmaOCMW1tHxcvJWjdDtOj9LO8LZ+qjeqB3sbayQuHQkR6iZKujXzwpnkLJn7mmm4bMlcrHpGfn8qbbX399DJfjo39UTyspHIKSqHp4YJHKMhAgbWOlcI9HLCzawijXclXX36Qu+gOlf2iYgMbdfbfTHtjwuIf3B+OD0iBC72NgjxdYG7oy36t/SWmYp7ffEIycTtmov/IpEIYzo0xvaLqXhrEPsUknFgRZIcnz+puMrIz80BHwxrha8mdMAAPYzCVoeiyhht+9Xow8RugVg2tr1OruAamkgkwviuTfDpuHAENXSWaWI3OrwxouZG6HyinTGb/0gYfn2pm9JtrixUr+onZfkorROUyvQIrlvxs/PtPhjYSrtEZvySEZKfpRMgfUMaoo+C159IJFI57QoA3B1t6yRVXOxtJEuXbK2tZKoMNPGvAM3jPZ3t8PebvfFqf8UJrM+fDDeaQQRCqM90QF1VIyljbSWS+179+5TueG9ISzRt4IS+IQ0RNTcCLvaWd/1p0Zg2GN5Wt42y2wW4Y7ka7xfK1PQ0E4lEpptEUkDecAR1nJdTXU1EJIQVE8KRsnwUwhq7YdSDYQvBDZ0hEonwcr9gDFBwjmpnYwWRSFRnme+K8R1wYuYgjOngr/fYidRheWeEalBUofP1Ux2M4sWrqEFts4bOuJdXAqD6xLJvSENkF5XBzcFWcj/VX0MXezzboyk+/++60KHo3bKx7TCxW6DK7dRZPlKfL9OqfDgiFE28nDA0zA+lFZV1lvBoytbaCidnDkJWYZnMF3llS+gAKK39++u1nth24Q5mDAtV2azYzsYKr/YPxoZTN5FfWqFWzKPDGyOons2A6+OtgS2w+khSnfsVNXW2JDOHh2LN0br/bVSRlyA1JFtrK0wdHIKpgzVvJG8u3hrYAs/2DNLLvrVdknDp42FmldCTVzWt6fI4oDqJJP3fxUVPS+vb+btjYKgPVh6I18v+icg8SPeIfXNgC4T6ucltdaAuKyuRxv04ifSJFUkaaNO4fs1O1RHc0Bmj2unmyuf6F7vh37f6aNQ8nNTzWn/jGfs+WGpJwJgOjZG8bKTO9q1OEkkd307qiNkjW+tkX/I42VUv6Qps4IQQX1ed9EVp7OEoSSL981ZvvD6gOd4Z0lLpc9oHeMjclv5S0yXIC0seb6f2xKtZI1oj9uNhmDtKvf9uUwUudXZ1sEXSUt397ZkTbSszI0yssbW5eSeiJd4f1kpv+9e2isickkiAbB9Hbc0d1bpO8un5Xk3RN6QhFj32cFl2cENnJC8bqdVra/nYdvB1s8dnT7bHOxEh2Du9X73jJiLjFdbIDZN7BWHOyNZ4pH0jDGzlrfY59pQ+sn3wbK2tMLytn9lVj5JlYyJJA4oqlXTt8yeVTzXqo+AqZnMf2WqEmrLIRu7Gs+TNXNhYWwleLQAACx4Nw0+Tu0p6UT3fK6jeE29qDGylm6Wbjd0d8Eh79Zo3G6v2AR74cHgonFV8gbOzsUL8khH49aVuODlzkFrT4lSZ0jcYRz8YqHI7bZuE65KVlQjfTuoouT2mg2n/u+uLOg3guwZ5CtowmYBpEfqtxNImIVTf6X3GyMOxbnLd11Wz8xZ5veGc7Gzw60vd8WyPppKr+KPaN4JIJMLQNponkp7qFohTswYj1M8NIpEIrfxcsevtvhrvR2gNXewxJMwXYzsJX2FPZMx2TeuLBaPb4OV+wfh2Uif8/EI3mXPsl/ooHprQJUj47whE+mZel7V06I0BzfH9YWGaNCqrpgj1c1VY8j1jeChsrKwwutaXt1kjWqOwrBLj1ZyuROrp3NQTp5KyVG+oJ9JLhtY+1wU5xeVaLQeo7efJXVFaUYWI1rpplK7PJW3GyNbaCn1DdNs/LbCBEx4Nb4x/o1PlPq7LKrT6eqR9Y4T6uWJnzD2dTaYyN/Y21jj8/gBkFZUhNacYb22QbeCfvGykzhLCpJ3Nr/YUOgQZ/Vp6Y+bwUDQTcPmqPsQtHAYbOdMl1a3cBICD7/VXuc32t3rjZGImhj+YljmuUwBm/BWj1v6/fqqDpAdl7ddlQxfTqi44/P4A+Hs6wtbaCvdyS7D1/B30DG6AyKRMnR5n2xu90DHQU3I7Pa8E3ZYe0OkxiIQW3sQDk3sFobGHA1wdbOHv4YjtF1MhFosxRA/9QImMDSuSFHhXxRIWoSgbQe/mYIsFo9ugk9SHN1BdPv/dpE4yEwGo/gZrURofNTcCSUtHopuWa6RrJp5JV30A1ZUgypJIVxep1wwbqJ6eM7ytn9yTe01FtPbF872C6r0fAlY+1QGxC4YiZfkoHJD64rTvnX5Gl3Ro4eOKaQ+mklC1miWK6yZXv4aDGjqjU6AnHmlfvRz1uZ5N8ViHxjg3N8Lo/j0tkbbv0ZpydVDvNTI41Adhjd10smzXmDjZKf79Q/3Uq7IM9nZRuU1DF3uMDm8sqRK1shIpXKJesxQuxMcFyctGYkwHf3QPbiB3W00SXkJ7b0hLBDV0hu2Dz3Y/dwfELRyG36fIn0Ra4+unOsgMoADqLqUeHOqDQC8nye2Otc5DfYxoGAyZL3nJm0Cv6mERp2YNxqIxbfDRo2E6O56NlQgLRrfBK/2aY2K3QPRr6Y0vxofjywkd2FaELALP8hWwsbbCuM4B+OvcbaFDISNVO2GnjoYu1dPeNr/aE6uPJGLZ7qtqP/ePV3qgR3ADtZoXr32uC6asjwIArHm2MxxsrdHO313lSPkAT9028evc1JNfinVEJBLB1aH6S0tzbxfELRwGEURm98XSXE3pGyx3+Q1Q/W+7cExbuY+R4alaXq5LRz8YiI6L9il8PMTHBR8Ma6XVhQshdW7qiXM3suu1jxnDW+HFX6Lg4WSL0eGNsT7yho6iq/bh8FZo3cgV7fzdkVNcjrHfnwQAPNujKSZ2baLWxRR7G9N5/5XXNF9eIu/Xl7rh4NV0/HIyBV9N6IDR4Y0hEomw6ZUemLDmFL5+qvq+sZ0C0NTLCbnF5fB0toNYLMb/TqYonDR5bMZARN3Iwuhwf1hbibBi33V8rYOG5S/1aQYbKxFWH03Cxpd7YOKPp+q9TzI9r/YPxszhobh6Lx+PfnMcFVViBHo54dD7A2Alqv6cfbZnEHbH3pU857meTeu8r3Rv5oXTyVkIb+Kh8Fgv9WmG8zez2ceQLB4TSUo42Oq3YGtMh8bYflH+UhWhDAr1wcGr6RjZzk/oUEzCojFtMG/7Za2e+0LvZrh2Lx9bL9xRut3F+UNQVlGl0RW9iDBffDepE9LySjD0QSn/a/2b480N55U+TyxW+xBqeb4Xe7zoi7Ir+USkPekBBvqmrPGqKU9nW/9iN/wvMgUJ6QXYel75Z5wiA1v5YMvrvdDc2xmuDrZyE0nHZqjuH6eISCSSmcQ7uVcQPB5UGOmiIteYSFcLyRPg6Yjb2cX45Il26Bvijb4h3pg3KkxmUED3WheyapZZ1vwNi0QiTO6teDlzEy8nNJGKY3pECEa1b4QW3i5IySzEkBVHAQCXPx6GDadvYuGOOADAB8Na4bO91+Tu84enO2HEgwE1sx4M9DgxcxDiUvPw8oOLaWQZZo2o/vdv3cgNe9/phw2nb+LV/sF1KoMGt/ZFeBMPdAhwx8dj2mLhmLa4l1uC7KIyNHJ3gI21FXbGpGJImOLvQfMe0V1VE5EpM80zFAOZ0icYv526CaD6A0/Xlo1th5yichy5fl/n+9bWyokdcfhaOga2MtyJtCmrXe5++P0BGPD5YbWea2djhS8ndEDP5g1w6Fo6dsXek7udh5N2PRhGtZed/hcR5iM5WVRE3aUE8qyc2BFvb3zY6+XnyV2Z7CAik2MMU3W6BnmabBIJAJztbfDGgOrlT1+O74CgmTs13odIJELnpsorf5uoSJBoYsHoNlo9b0iYL/bFpcl9zM3BBnklFfUJSydULTHfObUv4u7myYwm13bapLpEIhFaPhgSEeztgkSpqZ8v9A6Cn7sDbmUV4YXezTCxWyB2xKRidHhjlFZUwcfVHnklFXCX06jd38MR/h6OmDuqNRbvvKLX34GMQ+3kf3NvF4XJHjsbK2x/s7fMfX7uDvCTGkw0oatuJhYTmTvTPUsxgKCGzri6aDhuZxehuRpr8DXlZGeDUe0bySSSGmjYuHHH1D74ZM9VfDg8VCcxudjbmPyELSEFNXTWuHHlk12aYFznADSbtQsA0KWpJ6LquSRAHnsbaxz/cBBSc4pRVFaJiC+P1Nlm+RPttd7/6PDGGNbGF2Ix4GBrOuX+REQ19HHRSBufjjPc8jpTMaKtH3ZfenjB5e9aXwaFYmstP+GycmJHjA5vrFUS7fLHw9Dmo731DQ0AsOqZziqHZ7g72aJnc/l9oIQgEokwst3Di2FeNnZ4rmeQzDbykkjSpvQNxqojicgoKMOLvZvhyt08nTcVJ+Pw3dOdhA6ByCIxkaSCg601WvgYZqx2r+YNsHys/C/yr/YPxrbzd/BKP9nmkG393fHrS8obJZL+NPZ42FPosQfT8hS1BFK2llokEuHEzEGISsnCqHaNYGNthR0xqfDVQ4PKmpg3vNwdk348LfOYt6t9vfZtSv0iiIhqU9SAWZ9WPdMJr/0mu+zY3Kaz6cLyse1lEkkdlPQwMaRZI1rXqSie3CsIo8OrzwmCvZ2RdL9Q5vHaSbHanO1tELNgKNov+K9esZ2ePVgv5xGmYsfUvjh8LR2PdfSHg601isoqkFdcgVd/O4foWzm49PEwVFaJcT0tH0+uinzwnD4IauiM307dwHIN+liSMFwdbHjxkkggTCQZkQ0v95B7/9Y3eqFToCdmDg9l42Ij42Jvg+MfDkR8egH6tKieqDewlQ9OJta96tU+QH4Dyhr+Ho7wl+rXoO/KsF7NG2JyryD8cjJFr8chIjIFXz/VQZAvJKF+bpKfQ3xcsGxsO4PHYArcnWxhZ2OFsooqvDnQ8Ak/ReQtr5NeVrPtjd4I/1g2IbTosbYKE0nDH/Q1dHPQfiJcz+AGWDmxY70vDpk6P3cHPNXt4TIlJzsbONnZYNvrvVApFksm2HUNerikz8fNHi72Nnitf3P0DG6A6Zsuwt7GClfv5Rs8fnNgYyXCksfb4sMtsXrZf+yCYXrZLxGpxkSSkVr7XBfsi0vDx2PaSE5smUQyTgGeTgjwfHgi+ULvIBxLyMDRWr2vnIxwutaC0W2wYHQbnLuRjSY6nthGRGRKpBsvC+XfqX14dV2JA+/2x5Hr9zGuc4DQoSgl3eDX3dEWix9ri7l/XwIA/PVaTzR0sccnT7ST++X6h2ceLtPpG9IQx+IzND7+/17sBjsb82oYrktWViJYQfac+o9XeqCwtAI+rg8ruMKbeODQ+wMAAJfu5CL6dg6KyyoN0nvpw+Gh+GSP4oqoL8eH493N0XC0tcbmV3vi0W+P6z0mVR4Nb4ygBk54d0hLlFZU4dyNbIQ1coOnsx2GtfFD3N28OpXw9VG7FygRGRYTSUYqIswXEWEcK2mKbKytMG9UawyplUh6urvxTjBT1dCUiIj0I9DLCe383eFkZw17fvlXqomXE57pYbyfpYo806NpnbjDGsmvUpa+aPjtxE4IX6jZ8ra1z3VhEkkLPYKV94hq6++Otv7V/2Yv9WmGG5lFOJmYiehbOdgUdUunsXw1oQPGdGiM3i0aICWzCH+duy25ONm5qSe2vN4LADCibSPY2VjB2kqElOWjkF1Yhr2X72FU+0ZwsbfB2ZRsjF9dvWRvVPtG+HZiR4hEIry98QL+iX44NbqlrwuupxWojCvUzxUFpRUyQ1uc7azRPbgBZo4IlTRPB6pbg/R+UKkPVA+O6dW8IVKWj9Kqb5i0ox8MxLGE+5Llo0QkDCaSBGbpZcfmKsS3bl8tRyOsSCIiImDzqz0FO7aVlQj/vFXdOJqVx6bppT7N8NPxZADVVRnqaCdnuXu/lt4yt92dbLHosbaY96CaSR28CKl/IpEIQQ2dEdTQGUPCfCWJpG1v9MKZ5CwsU6O30qv9gjFzRChyisrxb0wq5m+/jEVj2mBspwA4P5jY2D7AA+0DPBQmTGqfV3o628ks5evWzAtJS0fWmcC3cmJHLH68LaxFIlRUimFva4XOi/ahsKxSzu8KfDK2PSLCfOElNdHylxPJCPF1lUkWqUu6Qq+dvztuZxchu6hc7ecHNnDC0w1ML6FMZG5EYrFYLHQQlkwsFuOL/66jTWM3jGjHEk1zUvuKS8ryUQJFQkRkudS5+s33Z/2q/W/w8wtdEdTA2WyaimcXlqHjon0AgE2v9EB3FdUtNZ5bd0ZmGfze6f3Qyq/uhSh1Kzg2vtzDqKavWYrE+wVwsbeRaWz+5u/nsTP2LoDqxIm/hyOOXL8Pe1sr9AvxrpOAyS8ph2s9+mLpQl5JOXbH3kXHQE/E3M7F/O2XsPb5LujVXPNkkSq3s4uwI+YuJnYNhKuDDV5eH4XCsgp0C/LC7ZxibD1/R2Z7TydbPNEpAJO6ByJYD5O0iUhzrEgSmEgkwvvDWgkdBumBdCPr53vyygkRkTHq1sxL9UakM52bemJgK+Xj6E2Np7Md1jzbGYn3CzX6e1rwaBgGfXFEctvXTfsq9eRlI1nRJpDmchIby55oh27NvDCirR98HiSYBoYq/rsXOokEVDd4n9C1uqKppa8rxnb0r1PNpCsBnk4yUzJ/mtxV8vOqI4mSn2uS/GKxmH/fREaGiSQiPfno0TBM6dsMTnY28HQS/gSBiIjqMrekhrEz16+CQx9MW9NE7YosDyc7BVuqxi/ZxsXNwRbP9woSOox60VcSSZUXegchPa8Ug6QSb/z7JjI+7MZHpCcikQgBnk7wcrbjByARkZGa1D1Q9UZEeiASifDVhA4AqvvrKPKsigbjrKojc2JvY435j4ahT4jul9QRke4wkUREREQWy92RFaMknMc6+iNl+Sh0DFQ8PfXj0W2U7uOLJ8N1HRYREZFSTCQRERERkUHUZ/mWpbKyEqFL0+pEU+emdRNOTbycDB0SERFZOPZIIiIiIovUxMtR6BAszqLHlFfXkHx/vtYTBaUVsLOxQqu5eyT3dwz0EC4oIiKyWKxIIiIiIov06RNcEmRI0yNC0MidyTttiEQiuDrYwt7GGiPaVjf2Htc5AFteU9xbiYiISF9YkUREREQWydOZ/ZHI9PzwTGehQyAiIgvHiiQiIiKySH5uDkKHYFFsrXnaSUREZA74iU5ERERmK9jbWe794zoHsPGzgUyPCEGonyue7al8jD0RERGZBpFYLBYLHQQRERGRPmQVlqHTon117k9YMgI2rJAhIiIi0hjPoIiIiMhseTnLrzpiEomIiIhIOzyLIiIiIrP27aSOQodAREREZDaYSCIiIiKz1sLHReb2mwObCxQJERERkeljIomIiIgsyvtDWwkdAhEREZHJYiKJiIiILIpIJBI6BCIiIiKTxUQSERERWYxHwxsLHQIRERGRSWMiiYiIiCzG/EfChA6BiIiIyKQxkURERERmrbGHo+Rnb1d7ASMhIiIiMn0isVgsFjoIIiIiIn26mVkEOxsr+Lk7CB0KERERkUljIomIiIiIiIiIiNTCpW1ERERERERERKQWJpKIiIiIiIiIiEgtTCQREREREREREZFamEgiIiIiIiIiIiK1MJFERERERERERERq+T/1GpFoBMsRkAAAAABJRU5ErkJggg==;" parent="1" vertex="1">
          <mxGeometry x="236.79" y="370" width="292.36" height="42.48" as="geometry" />
        </mxCell>
        <mxCell id="FjPlvFc2R7vJgaK0KZA3-34" value="&lt;font face=&quot;Times New Roman&quot; style=&quot;font-size: 16px;&quot;&gt;Waveform&lt;br&gt;&lt;/font&gt;" style="text;html=1;strokeColor=none;fillColor=none;align=center;verticalAlign=middle;whiteSpace=wrap;rounded=0;" parent="1" vertex="1">
          <mxGeometry x="315.97" y="340" width="134" height="30" as="geometry" />
        </mxCell>
      </root>
    </mxGraphModel>
  </diagram>
</mxfile>
